<?xml version="1.0" encoding="UTF-8"?>
<svg version="1.1" xmlns="http://www.w3.org/2000/svg" width="512" height="512">
<path d="M0 0 C4.89455504 3.46697649 8.31280223 7.64414174 11.96875 12.3828125 C13.28292678 14.07607874 14.63545254 15.74054661 16.03125 17.3671875 C20.17780221 22.2784727 22.2140321 25.47202098 22 32 C20.20460422 38.10434565 16.2473006 40.06352476 11 43 C7.27369627 44.89403095 3.49360829 46.64794354 -0.3125 48.375 C-1.30056641 48.83777344 -2.28863281 49.30054688 -3.30664062 49.77734375 C-4.25345703 50.20917969 -5.20027344 50.64101563 -6.17578125 51.0859375 C-7.45835815 51.6744751 -7.45835815 51.6744751 -8.7668457 52.27490234 C-11 53 -11 53 -14 52 C-14.90941111 50.58536049 -15.81763514 49.16993856 -16.71875 47.75 C-22.20850578 40.25179698 -30.31510834 35.53832829 -39.4375 34.125 C-48.47704301 33.47931836 -56.95992415 36.11435493 -64.09765625 41.6171875 C-70.61658528 47.49031609 -74.39876858 54.58258849 -75.37109375 63.34375 C-75.50037452 69.85341711 -74.52161233 75.7032179 -73 82 C-108.53776697 98.76083482 -108.53776697 98.76083482 -124.74511719 106.2434082 C-130.12381744 108.7275328 -135.4934647 111.22720518 -140.83828735 113.78334045 C-143.43068922 115.02214268 -146.0271008 116.25240752 -148.62384033 117.48208618 C-149.86346132 118.07205447 -151.10110266 118.66620249 -152.33660889 119.26473999 C-154.04225363 120.09068986 -155.75535443 120.9011889 -157.46875 121.7109375 C-158.44263672 122.17806152 -159.41652344 122.64518555 -160.41992188 123.12646484 C-163.19115824 124.06472031 -164.34407201 124.1579414 -167 123 C-168.38671875 121.14453125 -168.38671875 121.14453125 -169.6875 118.8125 C-172.94939163 113.64441477 -176.65929506 110.86305832 -182 108 C-182.62648438 107.6596875 -183.25296875 107.319375 -183.8984375 106.96875 C-190.89374135 103.7810166 -198.89546698 103.92535863 -206.22265625 105.84375 C-214.63007316 108.98988831 -220.85793709 113.87331088 -225.375 121.6875 C-229.99988379 132.32680666 -229.0470151 142.07333832 -226 153 C-228.63831444 154.32975894 -231.28406319 155.63853721 -233.9375 156.9375 C-234.67291016 157.31068359 -235.40832031 157.68386719 -236.16601562 158.06835938 C-241.29601389 160.55495242 -246.21570568 162.42063864 -252 162 C-258.1651725 159.41269739 -260.22866987 154.6537209 -262.875 148.875 C-263.2771875 148.070625 -263.679375 147.26625 -264.09375 146.4375 C-267.15917226 139.91044443 -268.289244 133.62818633 -266.32202148 126.56616211 C-265.8853161 123.08609367 -266.93163979 121.34563164 -268.52734375 118.24609375 C-269.07197266 117.14330078 -269.61660156 116.04050781 -270.17773438 114.90429688 C-271.33908193 112.61640352 -272.50820427 110.33243798 -273.68554688 108.05273438 C-277.33651879 100.61716584 -279.35451375 94.32676127 -278 86 C-275.90038428 80.91605043 -272.93843127 77.66691045 -268.578125 74.30859375 C-265.31796666 71.60524463 -262.72403983 68.22623711 -260 65 C-231.46872216 31.33719737 -204.19558521 5.24739421 -158.00463867 1.21166992 C-136.62859634 -0.29422337 -115.68418121 1.421626 -94.9375 6.6875 C-79.27578589 10.6090537 -67.17346073 8.5333624 -52 4 C-49.65241223 3.30705963 -47.30475167 2.61436581 -44.95703125 1.921875 C-41.32727976 0.84932238 -37.69918549 -0.22763057 -34.07543945 -1.3203125 C-32.97031006 -1.65289062 -31.86518066 -1.98546875 -30.7265625 -2.328125 C-29.74252441 -2.6262207 -28.75848633 -2.92431641 -27.74462891 -3.23144531 C-18.10841533 -5.92979083 -8.50894599 -5.65979665 0 0 Z M-158.5625 14.875 C-159.43777344 14.95331055 -160.31304687 15.03162109 -161.21484375 15.11230469 C-171.50024742 15.68127227 -171.50024742 15.68127227 -180.84594727 19.25732422 C-182.23176424 20.97068929 -182.23176424 20.97068929 -181.86254883 23.28735352 C-180.85532951 26.45497701 -179.59761256 29.38568014 -178.19921875 32.40234375 C-177.92157181 33.00252823 -177.64392487 33.60271271 -177.35786438 34.22108459 C-176.77126183 35.48545818 -176.18195042 36.74857814 -175.59008789 38.01049805 C-174.69350039 39.92468933 -173.8081019 41.84376658 -172.92382812 43.76367188 C-172.34962458 44.99770606 -171.77477544 46.23144009 -171.19921875 47.46484375 C-170.68190186 48.574646 -170.16458496 49.68444824 -169.6315918 50.82788086 C-166.8322153 56.72195112 -166.8322153 56.72195112 -162.20507812 61.07275391 C-158.67892867 60.95641284 -155.82207761 59.37285077 -152.71875 57.8359375 C-152.00046021 57.49210022 -151.28217041 57.14826294 -150.54211426 56.79400635 C-148.18939606 55.66508261 -145.84485696 54.52015026 -143.5 53.375 C-141.88081509 52.59428072 -140.26101804 51.81482977 -138.640625 51.03662109 C-136.17247932 49.85122292 -133.70472151 48.66510194 -131.23901367 47.47463989 C-126.02528034 44.95949057 -120.79208422 42.49314677 -115.53125 40.078125 C-114.88313354 39.78028107 -114.23501709 39.48243713 -113.56726074 39.17556763 C-110.54136652 37.78669205 -107.51302806 36.4034832 -104.48242188 35.02490234 C-102.88237305 34.28941162 -102.88237305 34.28941162 -101.25 33.5390625 C-100.32703125 33.11834473 -99.4040625 32.69762695 -98.453125 32.26416016 C-96.04704414 31.02424309 -94.01831343 29.80515243 -92 28 C-91.66574265 25.37374861 -91.66574265 25.37374861 -92 23 C-96.55197886 20.49961725 -101.01540055 19.03233493 -106.0625 17.9375 C-107.22084351 17.68371582 -107.22084351 17.68371582 -108.40258789 17.42480469 C-125.03405101 13.98278321 -141.69947343 13.35849865 -158.5625 14.875 Z M-208.625 32.8125 C-209.23255127 33.30878906 -209.84010254 33.80507813 -210.46606445 34.31640625 C-216.52274933 39.31642649 -222.32581977 44.57252326 -228 50 C-228.94875 50.9075 -229.8975 51.815 -230.875 52.75 C-236.2421994 57.99792831 -241.12893259 63.43795847 -245.8125 69.30078125 C-251.02503227 75.73267374 -256.59804806 81.81949798 -262.6875 87.4296875 C-264.32080321 89.38381812 -264.82914105 90.44635134 -265 93 C-263.96239381 95.84820054 -263.96239381 95.84820054 -262.3125 98.6875 C-261.79300781 99.66074219 -261.27351563 100.63398438 -260.73828125 101.63671875 C-259.25532124 104.05929994 -259.25532124 104.05929994 -257.23706055 104.79077148 C-254.09922595 105.08424788 -252.30168148 104.06975093 -249.46875 102.7109375 C-248.36192871 102.18781982 -247.25510742 101.66470215 -246.11474609 101.12573242 C-244.90979225 100.5422344 -243.70487793 99.95865476 -242.5 99.375 C-241.25010712 98.78040371 -239.99960829 98.18707965 -238.74853516 97.5949707 C-236.14015633 96.3591774 -233.53450029 95.11789338 -230.93066406 93.87255859 C-224.76761791 90.92993715 -218.57050137 88.06102242 -212.375 85.1875 C-211.21427979 84.64673828 -210.05355957 84.10597656 -208.85766602 83.54882812 C-201.36722564 80.06664123 -193.84785202 76.65983789 -186.23779297 73.44604492 C-181.43053456 71.57189269 -181.43053456 71.57189269 -178 68 C-178.42778161 62.82755608 -180.29215847 58.8001601 -182.5625 54.23046875 C-182.9138501 53.50886063 -183.2652002 52.7872525 -183.62719727 52.04377747 C-184.36667498 50.52847835 -185.10982525 49.01496653 -185.85644531 47.50317383 C-187.00322245 45.18097461 -188.13926854 42.8537699 -189.2734375 40.52539062 C-189.99417997 39.05178399 -190.71551326 37.57846615 -191.4375 36.10546875 C-191.77918213 35.40761765 -192.12086426 34.70976654 -192.47290039 33.99076843 C-193.91686846 30.78137268 -193.91686846 30.78137268 -196 28 C-201.61016807 27.23046367 -204.51422468 29.34053395 -208.625 32.8125 Z M-153.125 65.1875 C-154.01445312 65.59355469 -154.90390625 65.99960937 -155.8203125 66.41796875 C-158.21248405 67.84404456 -158.21248405 67.84404456 -158.9296875 70.55078125 C-158.95289063 71.35902344 -158.97609375 72.16726563 -159 73 C-158.34 73.66 -157.68 74.32 -157 75 C-151.59100578 74.87121442 -147.10853488 72.39272808 -143 69 C-142.67 68.01 -142.34 67.02 -142 66 C-143.31201173 64.43750191 -143.31201173 64.43750191 -145 63 C-148.37663661 63 -150.09363867 63.75135943 -153.125 65.1875 Z M-248.1875 109.25 C-249.06792969 109.66765625 -249.94835937 110.0853125 -250.85546875 110.515625 C-253.11629814 111.81377714 -253.11629814 111.81377714 -253.92578125 113.984375 C-254.20858299 116.32081193 -254.20858299 116.32081193 -252 119 C-246.83061483 118.48306148 -242.23642985 117.03895918 -238 114 C-236.69384054 111.48599612 -236.69384054 111.48599612 -237 109 C-237.66 108.34 -238.32 107.68 -239 107 C-243.04179492 107 -244.65365617 107.51700716 -248.1875 109.25 Z " fill="#323232" transform="translate(282,246)"/>
<path d="M0 0 C2.35938768 0.00933892 4.71878514 0.01644993 7.07818604 0.0214386 C13.25312619 0.04042316 19.42746743 0.08945036 25.60217285 0.1449585 C33.02951687 0.20538719 40.45706243 0.22810783 47.88458252 0.25722504 C59.13701173 0.30552015 70.38812985 0.40139685 81.640625 0.48828125 C81.640625 34.80828125 81.640625 69.12828125 81.640625 104.48828125 C74.380625 104.48828125 67.120625 104.48828125 59.640625 104.48828125 C59.00125 102.71453125 58.361875 100.94078125 57.703125 99.11328125 C53.18954168 88.33153855 45.07732083 80.41304451 34.5078125 75.49609375 C22.42326044 70.6714627 10.52500647 71.6100394 -1.359375 76.48828125 C-14.30879026 82.86988851 -19.45237386 91.49287874 -25.359375 104.48828125 C-35.589375 104.48828125 -45.819375 104.48828125 -56.359375 104.48828125 C-56.359375 100.52828125 -56.359375 96.56828125 -56.359375 92.48828125 C-55.245625 92.24078125 -54.131875 91.99328125 -52.984375 91.73828125 C-49.38260293 90.90031969 -49.38260293 90.90031969 -48.15625 88.72265625 C-46.7208265 84.69784134 -46.79265488 80.6932046 -47.359375 76.48828125 C-49.36665735 73.44018583 -50.46363793 72.68806899 -54.00390625 71.8984375 C-54.78121094 71.76308594 -55.55851562 71.62773437 -56.359375 71.48828125 C-56.45935156 66.43869597 -56.53135766 61.38970522 -56.57910156 56.33935547 C-56.59903499 54.62668808 -56.62619205 52.91408711 -56.66113281 51.20166016 C-56.95537435 36.39438767 -55.52690199 24.1083121 -45.359375 12.48828125 C-32.05810735 -0.60835151 -17.5278312 -0.20451243 0 0 Z " fill="#323232" transform="translate(427.359375,260.51171875)"/>
<path d="M0 0 C5.11153193 -0.25416457 10.2008737 -0.47226335 15.3137207 -0.60424805 C17.04755158 -0.65926213 18.78087912 -0.73411011 20.51293945 -0.82983398 C34.86966926 -1.60285687 34.86966926 -1.60285687 39.9777832 2.24047852 C42.26599642 5.04805037 44.13957054 7.89647855 46 11 C47.06769862 12.31488385 48.16483369 13.60688839 49.30078125 14.86328125 C49.79650635 15.43248291 50.29223145 16.00168457 50.80297852 16.58813477 C51.30112061 17.15717529 51.7992627 17.72621582 52.3125 18.3125 C53.43261343 19.59867819 54.55239749 20.88514328 55.671875 22.171875 C56.22681641 22.80931641 56.78175781 23.44675781 57.35351562 24.10351562 C61.42902525 28.79784521 65.46183847 33.52898741 69.50292969 38.25292969 C71.03286759 40.03835624 72.56670801 41.82036145 74.1015625 43.6015625 C78.69377135 48.93550064 83.25644957 54.28042213 87.6875 59.75 C91.23745321 64.12507747 94.95563821 68.30549192 98.75 72.46875 C101.86932876 75.97799486 104.79749133 79.63162123 107.75 83.28125 C109.93501569 85.92147729 112.19171391 88.4672972 114.5 91 C117.52282421 94.31989486 120.42512161 97.69764112 123.25 101.1875 C126.8547061 105.6385284 130.55382264 109.99187574 134.3125 114.3125 C134.86139893 114.94381836 135.41029785 115.57513672 135.97583008 116.22558594 C137.09274519 117.50960628 138.20985196 118.79345993 139.32714844 120.07714844 C142.03690275 123.19186311 144.74101897 126.31128729 147.4375 129.4375 C148.14483276 130.25118042 148.14483276 130.25118042 148.86645508 131.08129883 C151.41758958 134.04415421 153.83463349 137.07226377 156.17211914 140.20727539 C156.70414444 140.91985001 157.23616974 141.63242462 157.78431702 142.36659241 C158.38608009 143.17512917 158.38608009 143.17512917 159 144 C152.06439983 144.40784728 145.13190616 144.68666004 138.18701172 144.87890625 C135.82906644 144.95906669 133.47190935 145.06804599 131.11669922 145.20703125 C112.2900632 146.28966233 112.2900632 146.28966233 107.12649536 142.69616699 C103.84848893 139.10352614 102.03855584 134.81147392 100.13012695 130.38745117 C98.12335789 126.14804856 95.38019573 122.41266803 92.69921875 118.578125 C91.55805452 116.8996093 90.41902226 115.21964242 89.28198242 113.53833008 C88.69677826 112.67752838 88.1115741 111.81672668 87.50863647 110.92984009 C75.2650384 92.91313162 63.20271693 74.78188318 51.24682617 56.57324219 C42.55659813 43.34121292 33.78199682 30.17299523 25 17 C24.67 57.26 24.34 97.52 24 139 C29.28 139 34.56 139 40 139 C40.08064549 142.45879534 40.1403281 145.91572741 40.1875 149.375 C40.21263672 150.35984375 40.23777344 151.3446875 40.26367188 152.359375 C40.27333984 153.30039063 40.28300781 154.24140625 40.29296875 155.2109375 C40.3086792 156.08024902 40.32438965 156.94956055 40.34057617 157.84521484 C40.22818604 158.55629395 40.1157959 159.26737305 40 160 C36.68629 162.20914 35.6553979 162.22481553 31.8125 162.125 C30.91144531 162.10695313 30.01039063 162.08890625 29.08203125 162.0703125 C28.39496094 162.04710937 27.70789063 162.02390625 27 162 C26.25042843 165.47147842 26.25042843 165.47147842 26 169 C27.42927419 170.5581579 27.42927419 170.5581579 29.25 172.1875 C34.21817562 177.08513358 37.18054395 180.91055669 37.4375 188.0625 C37.22040303 192.40443932 36.65275304 195.4353631 34 199 C27.93423108 203.73928442 22.73216255 205.5154775 15 205 C9.50479407 203.69553056 6.08092332 201.92947731 3 197 C1.90493508 193.71480525 1.90039392 191.26336585 1.9375 187.8125 C1.94652344 186.72582031 1.95554687 185.63914062 1.96484375 184.51953125 C1.97644531 183.68808594 1.98804688 182.85664063 2 182 C3.98 182 5.96 182 8 182 C8.19335938 182.62648438 8.38671875 183.25296875 8.5859375 183.8984375 C8.84632813 184.71570313 9.10671875 185.53296875 9.375 186.375 C9.75785156 187.59316406 9.75785156 187.59316406 10.1484375 188.8359375 C10.89854283 191.16459185 10.89854283 191.16459185 13 193 C16.90903132 194.15494107 18.57336635 194.18171433 22.375 192.5625 C23.24125 192.046875 24.1075 191.53125 25 191 C25.59130428 188.34065953 25.59130428 188.34065953 25 185 C22.93366018 182.07980075 20.48284191 179.5680897 18 177 C15.0301262 173.63935333 13.51351635 171.49326806 13 167 C11.68 166.67 10.36 166.34 9 166 C9 164.68 9 163.36 9 162 C8.22914063 162.02320313 7.45828125 162.04640625 6.6640625 162.0703125 C5.66117187 162.08835937 4.65828125 162.10640625 3.625 162.125 C2.62726563 162.14820313 1.62953125 162.17140625 0.6015625 162.1953125 C-2 162 -2 162 -4 160 C-4.22705078 157.84521484 -4.22705078 157.84521484 -4.1953125 155.2109375 C-4.18886719 154.26992188 -4.18242187 153.32890625 -4.17578125 152.359375 C-4.15902344 151.37453125 -4.14226562 150.3896875 -4.125 149.375 C-4.11597656 148.38242188 -4.10695313 147.38984375 -4.09765625 146.3671875 C-4.07404249 143.91135612 -4.0381707 141.45564826 -4 139 C1.61 139 7.22 139 13 139 C13 98.41 13 57.82 13 16 C8.71 16 4.42 16 0 16 C0 10.72 0 5.44 0 0 Z " fill="#323232" transform="translate(315,102)"/>
<path d="M0 0 C8.17797389 5.88467962 12.67558238 12.86058007 14.78515625 22.76171875 C16.15450744 32.78788782 13.70643364 41.88366624 7.9375 50.125 C1.83583279 57.81840649 -6.08927249 61.7958329 -15.75 63.25 C-26.78416604 63.8343216 -36.42349611 60.46976051 -44.6875 53.0625 C-51.22973304 45.88043976 -54.11980937 36.33752384 -53.9609375 26.7734375 C-53.15945379 17.18531755 -49.74815958 8.68705358 -42.48828125 2.2421875 C-29.45540016 -7.53758826 -13.95062992 -8.73959061 0 0 Z M-31.625 21.4375 C-33.23047982 25.45119956 -33.42667379 28.98695511 -32.75 33.25 C-30.55873223 37.63253554 -28.33325461 40.41669816 -23.75 42.25 C-18.81659504 43.08617033 -15.01511329 42.84268623 -10.8125 40 C-7.64607689 37.57465464 -6.03478206 35.07128064 -5.4140625 31.1015625 C-5.31837296 25.64725865 -6.00601815 22.49992535 -9.75 18.25 C-13.43906706 15.08794252 -16.82890732 14.72616216 -21.53515625 14.8984375 C-26.05303401 15.61556095 -28.73626724 18.06731178 -31.625 21.4375 Z " fill="#323232" transform="translate(463.75,347.75)"/>
<path d="M0 0 C5.71352532 4.62573769 8.50755107 9.64374695 10.80078125 16.5234375 C11.6938284 26.27375554 9.96414966 32.68534463 4.67578125 40.7734375 C-0.81600542 46.02645083 -7.74945501 49.1674564 -15.32421875 49.7734375 C-24.55345905 49.17800264 -30.89945506 46.31901593 -37.19921875 39.5234375 C-42.07923963 33.4876222 -43.50467064 27.61408918 -43.07421875 20.0234375 C-42.46510049 14.84951534 -40.98308657 10.89951749 -38.19921875 6.5234375 C-37.36390625 5.193125 -37.36390625 5.193125 -36.51171875 3.8359375 C-26.79290674 -5.88287451 -11.50908001 -7.72723312 0 0 Z M-28.5234375 13.1015625 C-31.16637286 17.21897758 -31.82673742 20.59293368 -31.19921875 25.5234375 C-29.45294288 30.3742038 -26.77004882 34.04015103 -22.19921875 36.5234375 C-17.78112233 37.81402839 -14.32947202 37.89294338 -9.94921875 36.4609375 C-5.95883909 33.64953365 -3.01923332 31.09790183 -1.52734375 26.4140625 C-0.6637758 21.40536839 -1.27672158 17.65159189 -3.83984375 13.25390625 C-6.61742383 9.71807873 -9.78787184 7.97912511 -14.18359375 7.1484375 C-19.98915448 6.78840273 -24.75313154 8.60833651 -28.5234375 13.1015625 Z " fill="#323232" transform="translate(102.19921875,361.4765625)"/>
<path d="M0 0 C0.77537109 0.55494141 0.77537109 0.55494141 1.56640625 1.12109375 C2.45328125 1.67796875 3.34015625 2.23484375 4.25390625 2.80859375 C9.85177094 8.40645844 12.69850776 15.34544639 12.94140625 23.18359375 C12.87810623 31.29503896 10.28462115 36.62624602 5.37890625 42.93359375 C-2.84708679 49.33158834 -10.0137713 51.32338096 -20.43359375 50.12109375 C-27.49574752 48.69463223 -32.72927407 44.76782786 -36.98046875 39.03515625 C-41.27145193 31.77905547 -41.52384334 24.35558051 -40.43359375 16.12109375 C-37.8875793 7.58577657 -32.76957466 2.83108182 -25.43359375 -1.75390625 C-17.69764899 -4.683391 -7.06262573 -4.40842081 0 0 Z M-27.24609375 15.18359375 C-29.67590798 19.14802749 -29.74253678 22.56418408 -29.43359375 27.12109375 C-27.69339751 31.79214682 -25.67060602 34.48473056 -21.43359375 37.12109375 C-17.18783558 38.97064076 -13.70747931 39.5436865 -9.24609375 38.12109375 C-5.08328016 36.2855224 -2.99164306 33.84189274 -0.43359375 30.12109375 C0.91998802 26.06034845 1.38671801 22.36640423 -0.1171875 18.25 C-2.37690401 13.88996607 -4.89578195 11.22193254 -9.43359375 9.12109375 C-16.99955704 7.92581942 -22.07035614 9.29396129 -27.24609375 15.18359375 Z " fill="#323232" transform="translate(253.43359375,288.87890625)"/>
</svg>
